<svg xmlns="http://www.w3.org/2000/svg" width="32" height="32" fill="none" viewBox="0 0 32 32"><g clip-path="url(#clip0)"><path fill="url(#paint0_linear)" d="M22.1563 9.85H27.0751L24.6126 0H7.38757L9.84382 9.85H14.7688L17.2313 19.6938H14.1563L15.3876 24.6188H18.4626L19.6938 29.5438H27.0751L22.1563 9.85Z"/><path fill="url(#paint1_linear)" d="M24.6125 12.3124H22.7687L22.1562 9.84985H27.075L24.6125 12.3124Z"/><path fill="url(#paint2_linear)" d="M22.1563 4.92485H11.075L10.7688 3.6936H23.0813L22.1563 4.92485Z"/><path fill="url(#paint3_linear)" d="M7.38755 12.3125L4.92505 2.4625L7.38755 0L9.8438 9.85L7.38755 12.3125Z"/><path fill="url(#paint4_linear)" d="M18.4625 24.6187H15.3875L12.925 27.0812H16L18.4625 24.6187Z"/><path fill="url(#paint5_linear)" d="M12.3063 12.3124H7.38757L9.84382 9.84985H14.7688L12.3063 12.3124Z"/><path fill="url(#paint6_linear)" d="M17.2314 19.6936H14.1564L12.3064 12.3124L14.7689 9.84985L17.2314 19.6936Z"/><path fill="url(#paint7_linear)" d="M15.3876 24.6188L14.1563 19.6938L11.6938 22.1563L12.9251 27.0813L15.3876 24.6188Z"/><path fill="url(#paint8_linear)" d="M19.6938 29.5437L18.4625 24.6187L16 27.0812L17.2313 31.9999L19.6938 29.5437Z"/><path fill="url(#paint9_linear)" d="M24.6125 29.5437L19.075 7.38745L18.0938 8.3687L23.3875 29.5437L22.4 30.5249H23.6313L24.6125 29.5437Z"/><path fill="url(#paint10_linear)" d="M24 7.38735H22.7687L22.1562 4.92485L23.0812 3.6936L24 7.38735Z"/><path fill="url(#paint11_linear)" d="M24.6127 29.5439L23.6315 30.5252H22.4002L23.3877 29.5439H19.6939L17.2314 32.0002H24.6127L27.0752 29.5439H24.6127Z"/></g><defs><linearGradient id="paint0_linear" x1="7.385" x2="27.077" y1="14.771" y2="14.771" gradientUnits="userSpaceOnUse"><stop offset=".002" stop-color="#FCC33C"/><stop offset="1" stop-color="#FFEE50"/></linearGradient><linearGradient id="paint1_linear" x1="27.077" x2="22.154" y1="11.079" y2="11.079" gradientUnits="userSpaceOnUse"><stop stop-color="#FB9828"/><stop offset="1" stop-color="#F96C13"/></linearGradient><linearGradient id="paint2_linear" x1="23.078" x2="10.769" y1="4.31" y2="4.31" gradientUnits="userSpaceOnUse"><stop stop-color="#F84200"/><stop offset="1" stop-color="#F96C13"/></linearGradient><linearGradient id="paint3_linear" x1="5.94" x2="8.829" y1=".362" y2="11.95" gradientUnits="userSpaceOnUse"><stop stop-color="#F96C13"/><stop offset="1" stop-color="#FB9828"/></linearGradient><linearGradient id="paint4_linear" x1="12.923" x2="18.462" y1="25.848" y2="25.848" gradientUnits="userSpaceOnUse"><stop stop-color="#F84200"/><stop offset="1" stop-color="#F96C13"/></linearGradient><linearGradient id="paint5_linear" x1="7.385" x2="14.769" y1="11.079" y2="11.079" gradientUnits="userSpaceOnUse"><stop stop-color="#F84200"/><stop offset="1" stop-color="#F96C13"/></linearGradient><linearGradient id="paint6_linear" x1="15.78" x2="13.325" y1="20.056" y2="10.208" gradientUnits="userSpaceOnUse"><stop stop-color="#F96C13"/><stop offset="1" stop-color="#FB9828"/></linearGradient><linearGradient id="paint7_linear" x1="14.369" x2="12.708" y1="26.719" y2="20.055" gradientUnits="userSpaceOnUse"><stop stop-color="#FB9828"/><stop offset="1" stop-color="#F96C13"/></linearGradient><linearGradient id="paint8_linear" x1="18.677" x2="17.015" y1="31.642" y2="24.978" gradientUnits="userSpaceOnUse"><stop stop-color="#F96C13"/><stop offset="1" stop-color="#FB9828"/></linearGradient><linearGradient id="paint9_linear" x1="23.63" x2="17.933" y1="30.525" y2="7.672" gradientUnits="userSpaceOnUse"><stop stop-color="#F96C13"/><stop offset="1" stop-color="#F84200"/></linearGradient><linearGradient id="paint10_linear" x1="23.513" x2="22.593" y1="7.907" y2="4.214" gradientUnits="userSpaceOnUse"><stop stop-color="#F84200"/><stop offset="1" stop-color="#F96C13"/></linearGradient><linearGradient id="paint11_linear" x1="18.263" x2="25.618" y1="30.772" y2="30.772" gradientUnits="userSpaceOnUse"><stop stop-color="#F84200"/><stop offset="1" stop-color="#F96C13"/></linearGradient><clipPath id="clip0"><rect width="32" height="32" fill="#fff"/></clipPath></defs></svg>