<svg xmlns="http://www.w3.org/2000/svg" width="24" height="24" fill="none" viewBox="0 0 24 24"><rect width="24" height="24" fill="#292B3F" rx="12"/><path fill="#fff" d="M8.23988 6.66124L6.66275 8.23837C6.42037 8.48076 6.42037 8.87374 6.66275 9.11612L14.8857 17.339C15.1281 17.5814 15.521 17.5814 15.7634 17.339L17.3406 15.7619C17.5829 15.5195 17.5829 15.1266 17.3406 14.8842L9.11763 6.66124C8.87525 6.41886 8.48227 6.41886 8.23988 6.66124Z"/><path fill="url(#paint0_linear_8606_10086)" d="M14.9889 6.76459C15.2313 6.52216 15.6243 6.52216 15.8667 6.76459L17.3177 8.21555C17.56 8.45792 17.56 8.85089 17.3177 9.09332L9.09477 17.3162C8.85234 17.5586 8.45937 17.5586 8.217 17.3162L6.76604 15.8652C6.52363 15.6229 6.52363 15.2298 6.76604 14.9875L14.9889 6.76459Z"/><defs><linearGradient id="paint0_linear_8606_10086" x1="16.592" x2="7.491" y1="7.49" y2="16.591" gradientUnits="userSpaceOnUse"><stop stop-color="#B479FF"/><stop offset="1" stop-color="#7C79FF"/></linearGradient></defs></svg>