<svg xmlns="http://www.w3.org/2000/svg" xmlns:xlink="http://www.w3.org/1999/xlink" x="0" y="0" version="1.1" viewBox="0 0 512 512" xml:space="preserve" style="enable-background:new 0 0 512 512"><style type="text/css">.st25{fill:url(#SVGID_1_)}.st26{fill:url(#SVGID_2_)}.st27{fill:url(#SVGID_3_)}.st28{fill:url(#SVGID_4_)}.st29{fill:url(#SVGID_5_)}.st30{fill:url(#SVGID_6_)}.st31{fill:url(#SVGID_7_)}.st32{fill:url(#SVGID_8_)}.st33{fill:url(#SVGID_9_)}.st34{fill:url(#SVGID_10_)}.st35{fill:url(#SVGID_11_)}.st36{fill:url(#SVGID_12_)}</style><g id="Sketches"><g><g><linearGradient id="SVGID_1_" x1="118.154" x2="433.231" y1="236.343" y2="236.343" gradientUnits="userSpaceOnUse"><stop offset=".002" style="stop-color:#fcc33c"/><stop offset="1" style="stop-color:#ffee50"/></linearGradient><polygon points="354.5 157.6 433.2 157.6 393.8 0 118.2 0 157.5 157.6 236.3 157.6 275.7 315.1 226.5 315.1 246.2 393.9 295.4 393.9 315.1 472.7 433.2 472.7" class="st25"/><linearGradient id="SVGID_2_" x1="433.231" x2="354.462" y1="177.266" y2="177.266" gradientUnits="userSpaceOnUse"><stop offset="0" style="stop-color:#fb9828"/><stop offset="1" style="stop-color:#f96c13"/></linearGradient><polygon points="393.8 197 364.3 197 354.5 157.6 433.2 157.6" class="st26"/><linearGradient id="SVGID_3_" x1="369.255" x2="172.308" y1="68.959" y2="68.959" gradientUnits="userSpaceOnUse"><stop offset="0" style="stop-color:#f84200"/><stop offset="1" style="stop-color:#f96c13"/></linearGradient><polygon points="354.5 78.8 177.2 78.8 172.3 59.1 369.3 59.1" class="st27"/><linearGradient id="SVGID_4_" x1="95.041" x2="141.266" y1="5.798" y2="191.196" gradientUnits="userSpaceOnUse"><stop offset="0" style="stop-color:#f96c13"/><stop offset="1" style="stop-color:#fb9828"/></linearGradient><polygon points="118.2 197 78.8 39.4 118.2 0 157.5 157.6" class="st28"/><linearGradient id="SVGID_5_" x1="206.769" x2="295.385" y1="413.574" y2="413.574" gradientUnits="userSpaceOnUse"><stop offset="0" style="stop-color:#f84200"/><stop offset="1" style="stop-color:#f96c13"/></linearGradient><polygon points="295.4 393.9 246.2 393.9 206.8 433.3 256 433.3" class="st29"/><linearGradient id="SVGID_6_" x1="118.154" x2="236.308" y1="177.266" y2="177.266" gradientUnits="userSpaceOnUse"><stop offset="0" style="stop-color:#f84200"/><stop offset="1" style="stop-color:#f96c13"/></linearGradient><polygon points="196.9 197 118.2 197 157.5 157.6 236.3 157.6" class="st30"/><linearGradient id="SVGID_7_" x1="252.48" x2="213.195" y1="320.9" y2="163.337" gradientUnits="userSpaceOnUse"><stop offset="0" style="stop-color:#f96c13"/><stop offset="1" style="stop-color:#fb9828"/></linearGradient><polygon points="275.7 315.1 226.5 315.1 196.9 197 236.3 157.6" class="st31"/><linearGradient id="SVGID_8_" x1="229.907" x2="203.324" y1="427.497" y2="320.881" gradientUnits="userSpaceOnUse"><stop offset="0" style="stop-color:#fb9828"/><stop offset="1" style="stop-color:#f96c13"/></linearGradient><polygon points="246.2 393.9 226.5 315.1 187.1 354.5 206.8 433.3" class="st32"/><linearGradient id="SVGID_9_" x1="298.83" x2="272.247" y1="506.267" y2="399.651" gradientUnits="userSpaceOnUse"><stop offset="0" style="stop-color:#f96c13"/><stop offset="1" style="stop-color:#fb9828"/></linearGradient><polygon points="315.1 472.7 295.4 393.9 256 433.3 275.7 512" class="st33"/><linearGradient id="SVGID_10_" x1="378.086" x2="286.921" y1="488.399" y2="122.755" gradientUnits="userSpaceOnUse"><stop offset="0" style="stop-color:#f96c13"/><stop offset="1" style="stop-color:#f84200"/></linearGradient><polygon points="393.8 472.7 305.2 118.2 289.5 133.9 374.2 472.7 358.4 488.4 378.1 488.4" class="st34"/><linearGradient id="SVGID_11_" x1="376.215" x2="361.484" y1="126.509" y2="67.428" gradientUnits="userSpaceOnUse"><stop offset="0" style="stop-color:#f84200"/><stop offset="1" style="stop-color:#f96c13"/></linearGradient><polygon points="384 118.2 364.3 118.2 354.5 78.8 369.3 59.1" class="st35"/><linearGradient id="SVGID_12_" x1="292.212" x2="409.886" y1="492.343" y2="492.343" gradientUnits="userSpaceOnUse"><stop offset="0" style="stop-color:#f84200"/><stop offset="1" style="stop-color:#f96c13"/></linearGradient><polygon points="393.8 472.7 378.1 488.4 358.4 488.4 374.2 472.7 315.1 472.7 275.7 512 393.8 512 433.2 472.7" class="st36"/></g></g></g></svg>